{
    "asset" : {
        "generator" : "Khronos glTF Blender I/O v1.2.75",
        "version" : "2.0"
    },
    "scene" : 0,
    "scenes" : [
        {
            "name" : "Scene",
            "nodes" : [
                0,
                1
            ]
        }
    ],
    "nodes" : [
        {
            "mesh" : 0,
            "name" : "pilot",
            "rotation" : [
                0,
                -0.7071067690849304,
                0,
                0.7071067690849304
            ],
            "scale" : [
                1.1639100313186646,
                0.5190809965133667,
                0.48172399401664734
            ],
            "translation" : [
                -0.2971329987049103,
                0,
                0
            ]
        },
        {
            "mesh" : 1,
            "name" : "bicycle",
            "rotation" : [
                0,
                -0.7071067690849304,
                0,
                0.7071067690849304
            ],
            "scale" : [
                1.1639100313186646,
                0.5190809965133667,
                0.48172399401664734
            ],
            "translation" : [
                -0.2971329987049103,
                0,
                0
            ]
        }
    ],
    "materials" : [
        {
            "doubleSided" : true,
            "emissiveFactor" : [
                0,
                0,
                0
            ],
            "name" : "mat_white",
            "pbrMetallicRoughness" : {
                "baseColorFactor" : [
                    0.800000011920929,
                    0.800000011920929,
                    0.800000011920929,
                    1
                ],
                "metallicFactor" : 0,
                "roughnessFactor" : 1
            }
        }
    ],
    "meshes" : [
        {
            "name" : "db_newLOD_LOD child0_L1_LightInside__Geometry_0",
            "primitives" : [
                {
                    "attributes" : {
                        "POSITION" : 0,
                        "NORMAL" : 1,
                        "TEXCOORD_0" : 2
                    },
                    "indices" : 3,
                    "material" : 0
                }
            ]
        },
        {
            "name" : "db_newLOD_LOD child0_L2_BodyPartsNoShader__Geometry_3",
            "primitives" : [
                {
                    "attributes" : {
                        "POSITION" : 4,
                        "NORMAL" : 5,
                        "TEXCOORD_0" : 6
                    },
                    "indices" : 7,
                    "material" : 0
                }
            ]
        }
    ],
    "accessors" : [
        {
            "bufferView" : 0,
            "componentType" : 5126,
            "count" : 2664,
            "max" : [
                0.3830772936344147,
                1.9292426109313965,
                -0.1892288774251938
            ],
            "min" : [
                -0.38379859924316406,
                0.35424351692199707,
                -0.9093620777130127
            ],
            "type" : "VEC3"
        },
        {
            "bufferView" : 1,
            "componentType" : 5126,
            "count" : 2664,
            "type" : "VEC3"
        },
        {
            "bufferView" : 2,
            "componentType" : 5126,
            "count" : 2664,
            "type" : "VEC2"
        },
        {
            "bufferView" : 3,
            "componentType" : 5123,
            "count" : 11076,
            "type" : "SCALAR"
        },
        {
            "bufferView" : 4,
            "componentType" : 5126,
            "count" : 6923,
            "max" : [
                0.42958492040634155,
                1.3890068531036377,
                0.4211273193359375
            ],
            "min" : [
                -0.42958495020866394,
                0.0027612666599452496,
                -1.6547489166259766
            ],
            "type" : "VEC3"
        },
        {
            "bufferView" : 5,
            "componentType" : 5126,
            "count" : 6923,
            "type" : "VEC3"
        },
        {
            "bufferView" : 6,
            "componentType" : 5126,
            "count" : 6923,
            "type" : "VEC2"
        },
        {
            "bufferView" : 7,
            "componentType" : 5123,
            "count" : 23229,
            "type" : "SCALAR"
        }
    ],
    "bufferViews" : [
        {
            "buffer" : 0,
            "byteLength" : 31968,
            "byteOffset" : 0
        },
        {
            "buffer" : 0,
            "byteLength" : 31968,
            "byteOffset" : 31968
        },
        {
            "buffer" : 0,
            "byteLength" : 21312,
            "byteOffset" : 63936
        },
        {
            "buffer" : 0,
            "byteLength" : 22152,
            "byteOffset" : 85248
        },
        {
            "buffer" : 0,
            "byteLength" : 83076,
            "byteOffset" : 107400
        },
        {
            "buffer" : 0,
            "byteLength" : 83076,
            "byteOffset" : 190476
        },
        {
            "buffer" : 0,
            "byteLength" : 55384,
            "byteOffset" : 273552
        },
        {
            "buffer" : 0,
            "byteLength" : 46458,
            "byteOffset" : 328936
        }
    ],
    "buffers" : [
        {
            "byteLength" : 375396,
            "uri" : "data:application/octet-stream;base64,"
        }
    ]
}
