{
    "asset" : {
        "generator" : "Khronos glTF Blender I/O v1.2.75",
        "version" : "2.0"
    },
    "scene" : 0,
    "scenes" : [
        {
            "name" : "Scene",
            "nodes" : [
                0,
                1,
                2,
                3,
                4,
                5,
                6,
                7,
                8
            ]
        }
    ],
    "nodes" : [
        {
            "mesh" : 0,
            "name" : "db_newLOD_LOD child0_L1_BodyEnv_A6_Chassis_f0_Geometry_0",
            "rotation" : [
                0.5000000596046448,
                0.5,
                0.5,
                -0.5000000596046448
            ],
            "scale" : [
                0.5526218414306641,
                0.20866385102272034,
                0.7858201861381531
            ],
            "translation" : [
                -0.24260644614696503,
                0,
                0
            ]
        },
        {
            "mesh" : 1,
            "name" : "db_newLOD_LOD child0_L1_BodyEnv_A6_Chassis_f0_Geometry_0.002",
            "rotation" : [
                -0.5000000596046448,
                -0.5,
                -0.5,
                0.49999988079071045
            ],
            "scale" : [
                0.5526219010353088,
                0.20866388082504272,
                0.7858203053474426
            ],
            "translation" : [
                -0.24260644614696503,
                0,
                0
            ]
        },
        {
            "mesh" : 2,
            "name" : "db_newLOD_LOD child0_L1_BodyEnv_A6_Chassis_f0_Geometry_0.005",
            "rotation" : [
                -0.5000000596046448,
                -0.5,
                -0.5,
                0.49999988079071045
            ],
            "scale" : [
                0.5526219010353088,
                0.20866388082504272,
                0.7858203053474426
            ],
            "translation" : [
                -0.24260644614696503,
                0,
                0
            ]
        },
        {
            "mesh" : 3,
            "name" : "db_newLOD_LOD child0_L1_BodyNoEnv__Geometry_0",
            "rotation" : [
                -0.5000000596046448,
                -0.5,
                -0.5,
                0.49999988079071045
            ],
            "scale" : [
                0.5526219010353088,
                0.20866388082504272,
                0.7858203053474426
            ],
            "translation" : [
                -0.24260644614696503,
                0,
                0
            ]
        },
        {
            "mesh" : 4,
            "name" : "db_newLOD_LOD child0_L1_BodyNoEnv__Geometry_2",
            "rotation" : [
                -0.5000000596046448,
                -0.5,
                -0.5,
                0.49999988079071045
            ],
            "scale" : [
                0.5526219010353088,
                0.20866388082504272,
                0.7858203053474426
            ],
            "translation" : [
                -0.24260644614696503,
                0,
                0
            ]
        },
        {
            "mesh" : 5,
            "name" : "db_newLOD_LOD child0_L1_BodyNoEnv__Geometry_3",
            "rotation" : [
                -0.5000000596046448,
                -0.5,
                -0.5,
                0.49999988079071045
            ],
            "scale" : [
                0.5526219010353088,
                0.20866388082504272,
                0.7858203053474426
            ],
            "translation" : [
                -0.24260644614696503,
                0,
                0
            ]
        },
        {
            "mesh" : 6,
            "name" : "db_newLOD_LOD child0_L1_BodyNoEnv_A6_MiscParts__Geometry_3",
            "rotation" : [
                -0.5000000596046448,
                -0.5,
                -0.5,
                0.49999988079071045
            ],
            "scale" : [
                0.5526219010353088,
                0.20866388082504272,
                0.7858203053474426
            ],
            "translation" : [
                -0.24260644614696503,
                0,
                0
            ]
        },
        {
            "mesh" : 7,
            "name" : "db_newLOD_LOD child0_L1_HeadlightsGlasses_HeadlightGlasses_f0_G",
            "rotation" : [
                -0.5000000596046448,
                -0.5,
                -0.5,
                0.49999988079071045
            ],
            "scale" : [
                0.5526219010353088,
                0.20866388082504272,
                0.7858203053474426
            ],
            "translation" : [
                -0.24260644614696503,
                0,
                0
            ]
        },
        {
            "mesh" : 8,
            "name" : "db_newLOD_LOD child0_L1_Wheels_L1_WL0_L1_Wheel0__Geometry_2.002",
            "rotation" : [
                -0.5000000596046448,
                -0.5,
                -0.5,
                0.49999988079071045
            ],
            "scale" : [
                0.5526219010353088,
                0.20866388082504272,
                0.7858203053474426
            ],
            "translation" : [
                -0.24260644614696503,
                0,
                0
            ]
        }
    ],
    "materials" : [
        {
            "doubleSided" : true,
            "emissiveFactor" : [
                0,
                0,
                0
            ],
            "name" : "audi_white.001",
            "pbrMetallicRoughness" : {
                "baseColorFactor" : [
                    0.800000011920929,
                    0.800000011920929,
                    0.800000011920929,
                    1
                ],
                "metallicFactor" : 0,
                "roughnessFactor" : 0.5
            }
        }
    ],
    "meshes" : [
        {
            "name" : "db_newLOD_LOD child0_L1_BodyEnv_A6_Chassis_f0_Geometry_0.001",
            "primitives" : [
                {
                    "attributes" : {
                        "POSITION" : 0,
                        "NORMAL" : 1,
                        "TEXCOORD_0" : 2
                    },
                    "indices" : 3,
                    "material" : 0
                }
            ]
        },
        {
            "name" : "db_newLOD_LOD child0_L1_BodyEnv_A6_Chassis_f0_Geometry_0.003",
            "primitives" : [
                {
                    "attributes" : {
                        "POSITION" : 4,
                        "NORMAL" : 5,
                        "TEXCOORD_0" : 6
                    },
                    "indices" : 7,
                    "material" : 0
                }
            ]
        },
        {
            "name" : "db_newLOD_LOD child0_L1_BodyEnv_A6_Chassis_f0_Geometry_0.004",
            "primitives" : [
                {
                    "attributes" : {
                        "POSITION" : 8,
                        "NORMAL" : 9,
                        "TEXCOORD_0" : 10
                    },
                    "indices" : 11,
                    "material" : 0
                }
            ]
        },
        {
            "name" : "db_newLOD_LOD child0_L1_BodyNoEnv__Geometry_0.001",
            "primitives" : [
                {
                    "attributes" : {
                        "POSITION" : 12,
                        "NORMAL" : 13,
                        "TEXCOORD_0" : 14
                    },
                    "indices" : 15,
                    "material" : 0
                }
            ]
        },
        {
            "name" : "db_newLOD_LOD child0_L1_BodyNoEnv__Geometry_2.001",
            "primitives" : [
                {
                    "attributes" : {
                        "POSITION" : 16,
                        "NORMAL" : 17,
                        "TEXCOORD_0" : 18
                    },
                    "indices" : 19,
                    "material" : 0
                }
            ]
        },
        {
            "name" : "db_newLOD_LOD child0_L1_BodyNoEnv__Geometry_3.001",
            "primitives" : [
                {
                    "attributes" : {
                        "POSITION" : 20,
                        "NORMAL" : 21,
                        "TEXCOORD_0" : 22
                    },
                    "indices" : 23,
                    "material" : 0
                }
            ]
        },
        {
            "name" : "db_newLOD_LOD child0_L1_BodyNoEnv_A6_MiscParts__Geometry_3.001",
            "primitives" : [
                {
                    "attributes" : {
                        "POSITION" : 24,
                        "NORMAL" : 25,
                        "TEXCOORD_0" : 26
                    },
                    "indices" : 27,
                    "material" : 0
                }
            ]
        },
        {
            "name" : "db_newLOD_LOD child0_L1_HeadlightsGlasses_HeadlightGlasses_",
            "primitives" : [
                {
                    "attributes" : {
                        "POSITION" : 28,
                        "NORMAL" : 29,
                        "TEXCOORD_0" : 30
                    },
                    "indices" : 31,
                    "material" : 0
                }
            ]
        },
        {
            "name" : "db_newLOD_LOD child0_L1_Wheels_L1_WL0_L1_Wheel0__Geometry_2.001",
            "primitives" : [
                {
                    "attributes" : {
                        "POSITION" : 32,
                        "NORMAL" : 33,
                        "TEXCOORD_0" : 34
                    },
                    "indices" : 35,
                    "material" : 0
                }
            ]
        }
    ],
    "accessors" : [
        {
            "bufferView" : 0,
            "componentType" : 5126,
            "count" : 14391,
            "max" : [
                0.9047499895095825,
                3.7361810207366943,
                1.400151014328003
            ],
            "min" : [
                -0.9048054814338684,
                -1.056215763092041,
                0.12759536504745483
            ],
            "type" : "VEC3"
        },
        {
            "bufferView" : 1,
            "componentType" : 5126,
            "count" : 14391,
            "type" : "VEC3"
        },
        {
            "bufferView" : 2,
            "componentType" : 5126,
            "count" : 14391,
            "type" : "VEC2"
        },
        {
            "bufferView" : 3,
            "componentType" : 5123,
            "count" : 15021,
            "type" : "SCALAR"
        },
        {
            "bufferView" : 4,
            "componentType" : 5126,
            "count" : 126,
            "max" : [
                0.7900923490524292,
                3.6455256938934326,
                0.3508143126964569
            ],
            "min" : [
                -0.7900923490524292,
                3.352029323577881,
                0.2315846085548401
            ],
            "type" : "VEC3"
        },
        {
            "bufferView" : 5,
            "componentType" : 5126,
            "count" : 126,
            "type" : "VEC3"
        },
        {
            "bufferView" : 6,
            "componentType" : 5126,
            "count" : 126,
            "type" : "VEC2"
        },
        {
            "bufferView" : 7,
            "componentType" : 5123,
            "count" : 174,
            "type" : "SCALAR"
        },
        {
            "bufferView" : 8,
            "componentType" : 5126,
            "count" : 156,
            "max" : [
                0.9806682467460632,
                2.107004165649414,
                1.0409413576126099
            ],
            "min" : [
                -0.9806170463562012,
                1.9453535079956055,
                0.9061682224273682
            ],
            "type" : "VEC3"
        },
        {
            "bufferView" : 9,
            "componentType" : 5126,
            "count" : 156,
            "type" : "VEC3"
        },
        {
            "bufferView" : 10,
            "componentType" : 5126,
            "count" : 156,
            "type" : "VEC2"
        },
        {
            "bufferView" : 11,
            "componentType" : 5123,
            "count" : 402,
            "type" : "SCALAR"
        },
        {
            "bufferView" : 12,
            "componentType" : 5126,
            "count" : 78,
            "max" : [
                0.9806682467460632,
                2.111388683319092,
                0.967658519744873
            ],
            "min" : [
                -0.9806170463562012,
                1.948167324066162,
                0.9034756422042847
            ],
            "type" : "VEC3"
        },
        {
            "bufferView" : 13,
            "componentType" : 5126,
            "count" : 78,
            "type" : "VEC3"
        },
        {
            "bufferView" : 14,
            "componentType" : 5126,
            "count" : 78,
            "type" : "VEC2"
        },
        {
            "bufferView" : 15,
            "componentType" : 5123,
            "count" : 150,
            "type" : "SCALAR"
        },
        {
            "bufferView" : 16,
            "componentType" : 5126,
            "count" : 144,
            "max" : [
                0.7832780480384827,
                -0.6564860343933105,
                0.8755705952644348
            ],
            "min" : [
                -0.7832303047180176,
                -0.9498539566993713,
                0.6881330609321594
            ],
            "type" : "VEC3"
        },
        {
            "bufferView" : 17,
            "componentType" : 5126,
            "count" : 144,
            "type" : "VEC3"
        },
        {
            "bufferView" : 18,
            "componentType" : 5126,
            "count" : 144,
            "type" : "VEC2"
        },
        {
            "bufferView" : 19,
            "componentType" : 5123,
            "count" : 540,
            "type" : "SCALAR"
        },
        {
            "bufferView" : 20,
            "componentType" : 5126,
            "count" : 370,
            "max" : [
                0.9633740782737732,
                3.623784303665161,
                1.029480218887329
            ],
            "min" : [
                -0.9655990600585938,
                -0.942634105682373,
                0.12173384428024292
            ],
            "type" : "VEC3"
        },
        {
            "bufferView" : 21,
            "componentType" : 5126,
            "count" : 370,
            "type" : "VEC3"
        },
        {
            "bufferView" : 22,
            "componentType" : 5126,
            "count" : 370,
            "type" : "VEC2"
        },
        {
            "bufferView" : 23,
            "componentType" : 5123,
            "count" : 786,
            "type" : "SCALAR"
        },
        {
            "bufferView" : 24,
            "componentType" : 5126,
            "count" : 1123,
            "max" : [
                0.7907339334487915,
                2.484297752380371,
                1.3342511653900146
            ],
            "min" : [
                -0.7906860113143921,
                -0.5519503951072693,
                0.8829535245895386
            ],
            "type" : "VEC3"
        },
        {
            "bufferView" : 25,
            "componentType" : 5126,
            "count" : 1123,
            "type" : "VEC3"
        },
        {
            "bufferView" : 26,
            "componentType" : 5126,
            "count" : 1123,
            "type" : "VEC2"
        },
        {
            "bufferView" : 27,
            "componentType" : 5123,
            "count" : 4392,
            "type" : "SCALAR"
        },
        {
            "bufferView" : 28,
            "componentType" : 5126,
            "count" : 90,
            "max" : [
                0.8040605783462524,
                3.626218318939209,
                0.6946108341217041
            ],
            "min" : [
                -0.803924024105072,
                3.223533868789673,
                0.5410922765731812
            ],
            "type" : "VEC3"
        },
        {
            "bufferView" : 29,
            "componentType" : 5126,
            "count" : 90,
            "type" : "VEC3"
        },
        {
            "bufferView" : 30,
            "componentType" : 5126,
            "count" : 90,
            "type" : "VEC2"
        },
        {
            "bufferView" : 31,
            "componentType" : 5123,
            "count" : 342,
            "type" : "SCALAR"
        },
        {
            "bufferView" : 32,
            "componentType" : 5126,
            "count" : 2736,
            "max" : [
                0.9004610776901245,
                3.083035945892334,
                0.6230451464653015
            ],
            "min" : [
                -0.9004610776901245,
                -0.31548985838890076,
                -0.016955692321062088
            ],
            "type" : "VEC3"
        },
        {
            "bufferView" : 33,
            "componentType" : 5126,
            "count" : 2736,
            "type" : "VEC3"
        },
        {
            "bufferView" : 34,
            "componentType" : 5126,
            "count" : 2736,
            "type" : "VEC2"
        },
        {
            "bufferView" : 35,
            "componentType" : 5123,
            "count" : 3456,
            "type" : "SCALAR"
        }
    ],
    "bufferViews" : [
        {
            "buffer" : 0,
            "byteLength" : 172692,
            "byteOffset" : 0
        },
        {
            "buffer" : 0,
            "byteLength" : 172692,
            "byteOffset" : 172692
        },
        {
            "buffer" : 0,
            "byteLength" : 115128,
            "byteOffset" : 345384
        },
        {
            "buffer" : 0,
            "byteLength" : 30042,
            "byteOffset" : 460512
        },
        {
            "buffer" : 0,
            "byteLength" : 1512,
            "byteOffset" : 490556
        },
        {
            "buffer" : 0,
            "byteLength" : 1512,
            "byteOffset" : 492068
        },
        {
            "buffer" : 0,
            "byteLength" : 1008,
            "byteOffset" : 493580
        },
        {
            "buffer" : 0,
            "byteLength" : 348,
            "byteOffset" : 494588
        },
        {
            "buffer" : 0,
            "byteLength" : 1872,
            "byteOffset" : 494936
        },
        {
            "buffer" : 0,
            "byteLength" : 1872,
            "byteOffset" : 496808
        },
        {
            "buffer" : 0,
            "byteLength" : 1248,
            "byteOffset" : 498680
        },
        {
            "buffer" : 0,
            "byteLength" : 804,
            "byteOffset" : 499928
        },
        {
            "buffer" : 0,
            "byteLength" : 936,
            "byteOffset" : 500732
        },
        {
            "buffer" : 0,
            "byteLength" : 936,
            "byteOffset" : 501668
        },
        {
            "buffer" : 0,
            "byteLength" : 624,
            "byteOffset" : 502604
        },
        {
            "buffer" : 0,
            "byteLength" : 300,
            "byteOffset" : 503228
        },
        {
            "buffer" : 0,
            "byteLength" : 1728,
            "byteOffset" : 503528
        },
        {
            "buffer" : 0,
            "byteLength" : 1728,
            "byteOffset" : 505256
        },
        {
            "buffer" : 0,
            "byteLength" : 1152,
            "byteOffset" : 506984
        },
        {
            "buffer" : 0,
            "byteLength" : 1080,
            "byteOffset" : 508136
        },
        {
            "buffer" : 0,
            "byteLength" : 4440,
            "byteOffset" : 509216
        },
        {
            "buffer" : 0,
            "byteLength" : 4440,
            "byteOffset" : 513656
        },
        {
            "buffer" : 0,
            "byteLength" : 2960,
            "byteOffset" : 518096
        },
        {
            "buffer" : 0,
            "byteLength" : 1572,
            "byteOffset" : 521056
        },
        {
            "buffer" : 0,
            "byteLength" : 13476,
            "byteOffset" : 522628
        },
        {
            "buffer" : 0,
            "byteLength" : 13476,
            "byteOffset" : 536104
        },
        {
            "buffer" : 0,
            "byteLength" : 8984,
            "byteOffset" : 549580
        },
        {
            "buffer" : 0,
            "byteLength" : 8784,
            "byteOffset" : 558564
        },
        {
            "buffer" : 0,
            "byteLength" : 1080,
            "byteOffset" : 567348
        },
        {
            "buffer" : 0,
            "byteLength" : 1080,
            "byteOffset" : 568428
        },
        {
            "buffer" : 0,
            "byteLength" : 720,
            "byteOffset" : 569508
        },
        {
            "buffer" : 0,
            "byteLength" : 684,
            "byteOffset" : 570228
        },
        {
            "buffer" : 0,
            "byteLength" : 32832,
            "byteOffset" : 570912
        },
        {
            "buffer" : 0,
            "byteLength" : 32832,
            "byteOffset" : 603744
        },
        {
            "buffer" : 0,
            "byteLength" : 21888,
            "byteOffset" : 636576
        },
        {
            "buffer" : 0,
            "byteLength" : 6912,
            "byteOffset" : 658464
        }
    ],
    "buffers" : [
        {
            "byteLength" : 665376,
            "uri" : "data:application/octet-stream;base64,"
        }
    ]
}
