{
    "asset" : {
        "generator" : "Khronos glTF Blender I/O v1.2.75",
        "version" : "2.0"
    },
    "scene" : 0,
    "scenes" : [
        {
            "name" : "Scene",
            "nodes" : [
                0
            ]
        }
    ],
    "nodes" : [
        {
            "mesh" : 0,
            "name" : "MANTGL_09.001",
            "rotation" : [
                0,
                -0.7071067690849304,
                0,
                0.7071067690849304
            ],
            "scale" : [
                0.3525487184524536,
                0.31372857093811035,
                0.15482275187969208
            ],
            "translation" : [
                -0.21540699899196625,
                0,
                0
            ]
        }
    ],
    "materials" : [
        {
            "doubleSided" : true,
            "emissiveFactor" : [
                0,
                0,
                0
            ],
            "name" : "mat_white.001",
            "pbrMetallicRoughness" : {
                "baseColorFactor" : [
                    0.800000011920929,
                    0.800000011920929,
                    0.800000011920929,
                    1
                ],
                "metallicFactor" : 0,
                "roughnessFactor" : 0.5
            }
        }
    ],
    "meshes" : [
        {
            "name" : "db_newLOD_LOD child0_L1_BodyParts0_Lod1_Body_Back_f0_Geomet.001",
            "primitives" : [
                {
                    "attributes" : {
                        "POSITION" : 0,
                        "NORMAL" : 1,
                        "TEXCOORD_0" : 2
                    },
                    "indices" : 3,
                    "material" : 0
                }
            ]
        }
    ],
    "accessors" : [
        {
            "bufferView" : 0,
            "componentType" : 5126,
            "count" : 19068,
            "max" : [
                1.4182441234588623,
                3.183462381362915,
                1.7802151441574097
            ],
            "min" : [
                -1.418243169784546,
                -0.004006273578852415,
                -4.631430625915527
            ],
            "type" : "VEC3"
        },
        {
            "bufferView" : 1,
            "componentType" : 5126,
            "count" : 19068,
            "type" : "VEC3"
        },
        {
            "bufferView" : 2,
            "componentType" : 5126,
            "count" : 19068,
            "type" : "VEC2"
        },
        {
            "bufferView" : 3,
            "componentType" : 5123,
            "count" : 51969,
            "type" : "SCALAR"
        }
    ],
    "bufferViews" : [
        {
            "buffer" : 0,
            "byteLength" : 228816,
            "byteOffset" : 0
        },
        {
            "buffer" : 0,
            "byteLength" : 228816,
            "byteOffset" : 228816
        },
        {
            "buffer" : 0,
            "byteLength" : 152544,
            "byteOffset" : 457632
        },
        {
            "buffer" : 0,
            "byteLength" : 103938,
            "byteOffset" : 610176
        }
    ],
    "buffers" : [
        {
            "byteLength" : 714116,
            "uri" : "data:application/octet-stream;base64,"
        }
    ]
}
