{
    "asset" : {
        "generator" : "Khronos glTF Blender I/O v1.2.75",
        "version" : "2.0"
    },
    "scene" : 0,
    "scenes" : [
        {
            "name" : "Scene",
            "nodes" : [
                12
            ]
        }
    ],
    "nodes" : [
        {
            "mesh" : 0,
            "name" : "W0_3.054",
            "translation" : [
                2.9846999645233154,
                0,
                0
            ]
        },
        {
            "mesh" : 1,
            "name" : "W12_3.061"
        },
        {
            "mesh" : 2,
            "name" : "W13_2.981"
        },
        {
            "mesh" : 3,
            "name" : "W14_3.063"
        },
        {
            "mesh" : 4,
            "name" : "W15_3.063"
        },
        {
            "mesh" : 5,
            "name" : "W16_2.981"
        },
        {
            "mesh" : 6,
            "name" : "W17_3.061"
        },
        {
            "mesh" : 7,
            "name" : "W1_2.950",
            "translation" : [
                2.9846999645233154,
                0,
                0
            ]
        },
        {
            "mesh" : 8,
            "name" : "W2_3.061",
            "translation" : [
                2.9846999645233154,
                0,
                0
            ]
        },
        {
            "mesh" : 9,
            "name" : "W7_3.061",
            "translation" : [
                2.9846999645233154,
                0,
                0
            ]
        },
        {
            "mesh" : 10,
            "name" : "W8_2.950",
            "translation" : [
                2.9846999645233154,
                0,
                0
            ]
        },
        {
            "mesh" : 11,
            "name" : "W9_3.054",
            "translation" : [
                2.9846999645233154,
                0,
                0
            ]
        },
        {
            "children" : [
                0,
                1,
                2,
                3,
                4,
                5,
                6,
                7,
                8,
                9,
                10,
                11
            ],
            "name" : "parking_warning"
        }
    ],
    "materials" : [
        {
            "alphaCutoff" : 0.5,
            "alphaMode" : "MASK",
            "doubleSided" : true,
            "emissiveFactor" : [
                1,
                1,
                1
            ],
            "name" : "pkwarn",
            "pbrMetallicRoughness" : {
                "baseColorTexture" : {
                    "index" : 0,
                    "texCoord" : 0
                },
                "metallicFactor" : 0,
                "roughnessFactor" : 0.5
            }
        }
    ],
    "meshes" : [
        {
            "name" : "\u67f1\u4f53.010",
            "primitives" : [
                {
                    "attributes" : {
                        "POSITION" : 0,
                        "NORMAL" : 1,
                        "TEXCOORD_0" : 2
                    },
                    "indices" : 3,
                    "material" : 0
                }
            ]
        },
        {
            "name" : "\u67f1\u4f53.006",
            "primitives" : [
                {
                    "attributes" : {
                        "POSITION" : 4,
                        "NORMAL" : 5,
                        "TEXCOORD_0" : 6
                    },
                    "indices" : 7,
                    "material" : 0
                }
            ]
        },
        {
            "name" : "\u67f1\u4f53.005",
            "primitives" : [
                {
                    "attributes" : {
                        "POSITION" : 8,
                        "NORMAL" : 9,
                        "TEXCOORD_0" : 10
                    },
                    "indices" : 11,
                    "material" : 0
                }
            ]
        },
        {
            "name" : "\u67f1\u4f53.004",
            "primitives" : [
                {
                    "attributes" : {
                        "POSITION" : 12,
                        "NORMAL" : 13,
                        "TEXCOORD_0" : 14
                    },
                    "indices" : 15,
                    "material" : 0
                }
            ]
        },
        {
            "name" : "\u67f1\u4f53.001",
            "primitives" : [
                {
                    "attributes" : {
                        "POSITION" : 16,
                        "NORMAL" : 17,
                        "TEXCOORD_0" : 18
                    },
                    "indices" : 19,
                    "material" : 0
                }
            ]
        },
        {
            "name" : "\u67f1\u4f53.002",
            "primitives" : [
                {
                    "attributes" : {
                        "POSITION" : 20,
                        "NORMAL" : 21,
                        "TEXCOORD_0" : 22
                    },
                    "indices" : 23,
                    "material" : 0
                }
            ]
        },
        {
            "name" : "\u67f1\u4f53.003",
            "primitives" : [
                {
                    "attributes" : {
                        "POSITION" : 24,
                        "NORMAL" : 25,
                        "TEXCOORD_0" : 26
                    },
                    "indices" : 27,
                    "material" : 0
                }
            ]
        },
        {
            "name" : "\u67f1\u4f53.009",
            "primitives" : [
                {
                    "attributes" : {
                        "POSITION" : 28,
                        "NORMAL" : 29,
                        "TEXCOORD_0" : 30
                    },
                    "indices" : 31,
                    "material" : 0
                }
            ]
        },
        {
            "name" : "\u67f1\u4f53.016",
            "primitives" : [
                {
                    "attributes" : {
                        "POSITION" : 32,
                        "NORMAL" : 33,
                        "TEXCOORD_0" : 34
                    },
                    "indices" : 35,
                    "material" : 0
                }
            ]
        },
        {
            "name" : "\u67f1\u4f53.013",
            "primitives" : [
                {
                    "attributes" : {
                        "POSITION" : 36,
                        "NORMAL" : 37,
                        "TEXCOORD_0" : 38
                    },
                    "indices" : 39,
                    "material" : 0
                }
            ]
        },
        {
            "name" : "\u67f1\u4f53.014",
            "primitives" : [
                {
                    "attributes" : {
                        "POSITION" : 40,
                        "NORMAL" : 41,
                        "TEXCOORD_0" : 42
                    },
                    "indices" : 43,
                    "material" : 0
                }
            ]
        },
        {
            "name" : "\u67f1\u4f53.015",
            "primitives" : [
                {
                    "attributes" : {
                        "POSITION" : 44,
                        "NORMAL" : 45,
                        "TEXCOORD_0" : 46
                    },
                    "indices" : 47,
                    "material" : 0
                }
            ]
        }
    ],
    "textures" : [
        {
            "source" : 0
        }
    ],
    "images" : [
        {
            "bufferView" : 4,
            "mimeType" : "image/png",
            "name" : "parking_warn_line"
        }
    ],
    "accessors" : [
        {
            "bufferView" : 0,
            "componentType" : 5126,
            "count" : 512,
            "max" : [
                4,
                -5.587935447692871e-09,
                0
            ],
            "min" : [
                0.8519250154495239,
                -5.587935447692871e-09,
                -2.3511404991149902
            ],
            "type" : "VEC3"
        },
        {
            "bufferView" : 1,
            "componentType" : 5126,
            "count" : 512,
            "type" : "VEC3"
        },
        {
            "bufferView" : 2,
            "componentType" : 5126,
            "count" : 512,
            "type" : "VEC2"
        },
        {
            "bufferView" : 3,
            "componentType" : 5123,
            "count" : 768,
            "type" : "SCALAR"
        },
        {
            "bufferView" : 5,
            "componentType" : 5126,
            "count" : 512,
            "max" : [
                1.2360645532608032,
                0,
                -0.9156321287155151
            ],
            "min" : [
                -1.2360724210739136,
                0,
                -4
            ],
            "type" : "VEC3"
        },
        {
            "bufferView" : 6,
            "componentType" : 5126,
            "count" : 512,
            "type" : "VEC3"
        },
        {
            "bufferView" : 7,
            "componentType" : 5126,
            "count" : 512,
            "type" : "VEC2"
        },
        {
            "bufferView" : 8,
            "componentType" : 5123,
            "count" : 768,
            "type" : "SCALAR"
        },
        {
            "bufferView" : 9,
            "componentType" : 5126,
            "count" : 512,
            "max" : [
                -0.29750844836235046,
                0,
                -0.5929305553436279
            ],
            "min" : [
                -3.2360708713531494,
                0,
                -3.804224729537964
            ],
            "type" : "VEC3"
        },
        {
            "bufferView" : 10,
            "componentType" : 5126,
            "count" : 512,
            "type" : "VEC3"
        },
        {
            "bufferView" : 11,
            "componentType" : 5126,
            "count" : 512,
            "type" : "VEC2"
        },
        {
            "bufferView" : 12,
            "componentType" : 5123,
            "count" : 768,
            "type" : "SCALAR"
        },
        {
            "bufferView" : 13,
            "componentType" : 5126,
            "count" : 512,
            "max" : [
                -0.8161022067070007,
                0,
                0
            ],
            "min" : [
                -4,
                0,
                -2.351137161254883
            ],
            "type" : "VEC3"
        },
        {
            "bufferView" : 14,
            "componentType" : 5126,
            "count" : 512,
            "type" : "VEC3"
        },
        {
            "bufferView" : 15,
            "componentType" : 5126,
            "count" : 512,
            "type" : "VEC2"
        },
        {
            "bufferView" : 16,
            "componentType" : 5123,
            "count" : 768,
            "type" : "SCALAR"
        },
        {
            "bufferView" : 17,
            "componentType" : 5126,
            "count" : 512,
            "max" : [
                -0.8161022067070007,
                0,
                2.351137161254883
            ],
            "min" : [
                -4,
                0,
                0
            ],
            "type" : "VEC3"
        },
        {
            "bufferView" : 18,
            "componentType" : 5126,
            "count" : 512,
            "type" : "VEC3"
        },
        {
            "bufferView" : 19,
            "componentType" : 5126,
            "count" : 512,
            "type" : "VEC2"
        },
        {
            "bufferView" : 20,
            "componentType" : 5123,
            "count" : 768,
            "type" : "SCALAR"
        },
        {
            "bufferView" : 21,
            "componentType" : 5126,
            "count" : 512,
            "max" : [
                -0.29750844836235046,
                0,
                3.804224729537964
            ],
            "min" : [
                -3.2360708713531494,
                0,
                0.5929305553436279
            ],
            "type" : "VEC3"
        },
        {
            "bufferView" : 22,
            "componentType" : 5126,
            "count" : 512,
            "type" : "VEC3"
        },
        {
            "bufferView" : 23,
            "componentType" : 5126,
            "count" : 512,
            "type" : "VEC2"
        },
        {
            "bufferView" : 24,
            "componentType" : 5123,
            "count" : 768,
            "type" : "SCALAR"
        },
        {
            "bufferView" : 25,
            "componentType" : 5126,
            "count" : 512,
            "max" : [
                1.2360645532608032,
                0,
                4
            ],
            "min" : [
                -1.2360724210739136,
                0,
                0.9156321287155151
            ],
            "type" : "VEC3"
        },
        {
            "bufferView" : 26,
            "componentType" : 5126,
            "count" : 512,
            "type" : "VEC3"
        },
        {
            "bufferView" : 27,
            "componentType" : 5126,
            "count" : 512,
            "type" : "VEC2"
        },
        {
            "bufferView" : 28,
            "componentType" : 5123,
            "count" : 768,
            "type" : "SCALAR"
        },
        {
            "bufferView" : 29,
            "componentType" : 5126,
            "count" : 512,
            "max" : [
                3.2360682487487793,
                -5.587935447692871e-09,
                -0.618960440158844
            ],
            "min" : [
                0.29750657081604004,
                -5.587935447692871e-09,
                -3.8042261600494385
            ],
            "type" : "VEC3"
        },
        {
            "bufferView" : 30,
            "componentType" : 5126,
            "count" : 512,
            "type" : "VEC3"
        },
        {
            "bufferView" : 31,
            "componentType" : 5126,
            "count" : 512,
            "type" : "VEC2"
        },
        {
            "bufferView" : 32,
            "componentType" : 5123,
            "count" : 768,
            "type" : "SCALAR"
        },
        {
            "bufferView" : 33,
            "componentType" : 5126,
            "count" : 512,
            "max" : [
                1.2360680103302002,
                -5.587935447692871e-09,
                -0.9156321287155151
            ],
            "min" : [
                -1.236060380935669,
                -5.587935447692871e-09,
                -4
            ],
            "type" : "VEC3"
        },
        {
            "bufferView" : 34,
            "componentType" : 5126,
            "count" : 512,
            "type" : "VEC3"
        },
        {
            "bufferView" : 35,
            "componentType" : 5126,
            "count" : 512,
            "type" : "VEC2"
        },
        {
            "bufferView" : 36,
            "componentType" : 5123,
            "count" : 768,
            "type" : "SCALAR"
        },
        {
            "bufferView" : 37,
            "componentType" : 5126,
            "count" : 512,
            "max" : [
                1.2360680103302002,
                -5.587935447692871e-09,
                4
            ],
            "min" : [
                -1.236060380935669,
                -5.587935447692871e-09,
                0.9156321287155151
            ],
            "type" : "VEC3"
        },
        {
            "bufferView" : 38,
            "componentType" : 5126,
            "count" : 512,
            "type" : "VEC3"
        },
        {
            "bufferView" : 39,
            "componentType" : 5126,
            "count" : 512,
            "type" : "VEC2"
        },
        {
            "bufferView" : 40,
            "componentType" : 5123,
            "count" : 768,
            "type" : "SCALAR"
        },
        {
            "bufferView" : 41,
            "componentType" : 5126,
            "count" : 512,
            "max" : [
                3.2360682487487793,
                -5.587935447692871e-09,
                3.8042261600494385
            ],
            "min" : [
                0.29750657081604004,
                -5.587935447692871e-09,
                0.618960440158844
            ],
            "type" : "VEC3"
        },
        {
            "bufferView" : 42,
            "componentType" : 5126,
            "count" : 512,
            "type" : "VEC3"
        },
        {
            "bufferView" : 43,
            "componentType" : 5126,
            "count" : 512,
            "type" : "VEC2"
        },
        {
            "bufferView" : 44,
            "componentType" : 5123,
            "count" : 768,
            "type" : "SCALAR"
        },
        {
            "bufferView" : 45,
            "componentType" : 5126,
            "count" : 512,
            "max" : [
                4,
                -3.725290298461914e-09,
                2.3511404991149902
            ],
            "min" : [
                0.8519250154495239,
                -3.725290298461914e-09,
                0
            ],
            "type" : "VEC3"
        },
        {
            "bufferView" : 46,
            "componentType" : 5126,
            "count" : 512,
            "type" : "VEC3"
        },
        {
            "bufferView" : 47,
            "componentType" : 5126,
            "count" : 512,
            "type" : "VEC2"
        },
        {
            "bufferView" : 48,
            "componentType" : 5123,
            "count" : 768,
            "type" : "SCALAR"
        }
    ],
    "bufferViews" : [
        {
            "buffer" : 0,
            "byteLength" : 6144,
            "byteOffset" : 0
        },
        {
            "buffer" : 0,
            "byteLength" : 6144,
            "byteOffset" : 6144
        },
        {
            "buffer" : 0,
            "byteLength" : 4096,
            "byteOffset" : 12288
        },
        {
            "buffer" : 0,
            "byteLength" : 1536,
            "byteOffset" : 16384
        },
        {
            "buffer" : 0,
            "byteLength" : 3386,
            "byteOffset" : 17920
        },
        {
            "buffer" : 0,
            "byteLength" : 6144,
            "byteOffset" : 21308
        },
        {
            "buffer" : 0,
            "byteLength" : 6144,
            "byteOffset" : 27452
        },
        {
            "buffer" : 0,
            "byteLength" : 4096,
            "byteOffset" : 33596
        },
        {
            "buffer" : 0,
            "byteLength" : 1536,
            "byteOffset" : 37692
        },
        {
            "buffer" : 0,
            "byteLength" : 6144,
            "byteOffset" : 39228
        },
        {
            "buffer" : 0,
            "byteLength" : 6144,
            "byteOffset" : 45372
        },
        {
            "buffer" : 0,
            "byteLength" : 4096,
            "byteOffset" : 51516
        },
        {
            "buffer" : 0,
            "byteLength" : 1536,
            "byteOffset" : 55612
        },
        {
            "buffer" : 0,
            "byteLength" : 6144,
            "byteOffset" : 57148
        },
        {
            "buffer" : 0,
            "byteLength" : 6144,
            "byteOffset" : 63292
        },
        {
            "buffer" : 0,
            "byteLength" : 4096,
            "byteOffset" : 69436
        },
        {
            "buffer" : 0,
            "byteLength" : 1536,
            "byteOffset" : 73532
        },
        {
            "buffer" : 0,
            "byteLength" : 6144,
            "byteOffset" : 75068
        },
        {
            "buffer" : 0,
            "byteLength" : 6144,
            "byteOffset" : 81212
        },
        {
            "buffer" : 0,
            "byteLength" : 4096,
            "byteOffset" : 87356
        },
        {
            "buffer" : 0,
            "byteLength" : 1536,
            "byteOffset" : 91452
        },
        {
            "buffer" : 0,
            "byteLength" : 6144,
            "byteOffset" : 92988
        },
        {
            "buffer" : 0,
            "byteLength" : 6144,
            "byteOffset" : 99132
        },
        {
            "buffer" : 0,
            "byteLength" : 4096,
            "byteOffset" : 105276
        },
        {
            "buffer" : 0,
            "byteLength" : 1536,
            "byteOffset" : 109372
        },
        {
            "buffer" : 0,
            "byteLength" : 6144,
            "byteOffset" : 110908
        },
        {
            "buffer" : 0,
            "byteLength" : 6144,
            "byteOffset" : 117052
        },
        {
            "buffer" : 0,
            "byteLength" : 4096,
            "byteOffset" : 123196
        },
        {
            "buffer" : 0,
            "byteLength" : 1536,
            "byteOffset" : 127292
        },
        {
            "buffer" : 0,
            "byteLength" : 6144,
            "byteOffset" : 128828
        },
        {
            "buffer" : 0,
            "byteLength" : 6144,
            "byteOffset" : 134972
        },
        {
            "buffer" : 0,
            "byteLength" : 4096,
            "byteOffset" : 141116
        },
        {
            "buffer" : 0,
            "byteLength" : 1536,
            "byteOffset" : 145212
        },
        {
            "buffer" : 0,
            "byteLength" : 6144,
            "byteOffset" : 146748
        },
        {
            "buffer" : 0,
            "byteLength" : 6144,
            "byteOffset" : 152892
        },
        {
            "buffer" : 0,
            "byteLength" : 4096,
            "byteOffset" : 159036
        },
        {
            "buffer" : 0,
            "byteLength" : 1536,
            "byteOffset" : 163132
        },
        {
            "buffer" : 0,
            "byteLength" : 6144,
            "byteOffset" : 164668
        },
        {
            "buffer" : 0,
            "byteLength" : 6144,
            "byteOffset" : 170812
        },
        {
            "buffer" : 0,
            "byteLength" : 4096,
            "byteOffset" : 176956
        },
        {
            "buffer" : 0,
            "byteLength" : 1536,
            "byteOffset" : 181052
        },
        {
            "buffer" : 0,
            "byteLength" : 6144,
            "byteOffset" : 182588
        },
        {
            "buffer" : 0,
            "byteLength" : 6144,
            "byteOffset" : 188732
        },
        {
            "buffer" : 0,
            "byteLength" : 4096,
            "byteOffset" : 194876
        },
        {
            "buffer" : 0,
            "byteLength" : 1536,
            "byteOffset" : 198972
        },
        {
            "buffer" : 0,
            "byteLength" : 6144,
            "byteOffset" : 200508
        },
        {
            "buffer" : 0,
            "byteLength" : 6144,
            "byteOffset" : 206652
        },
        {
            "buffer" : 0,
            "byteLength" : 4096,
            "byteOffset" : 212796
        },
        {
            "buffer" : 0,
            "byteLength" : 1536,
            "byteOffset" : 216892
        }
    ],
    "buffers" : [
        {
            "byteLength" : 218428,
            "uri" : "data:application/octet-stream;base64,"
        }
    ]
}
