{
    "asset" : {
        "generator" : "Khronos glTF Blender I/O v1.2.75",
        "version" : "2.0"
    },
    "scene" : 0,
    "scenes" : [
        {
            "name" : "Scene",
            "nodes" : [
                0
            ]
        }
    ],
    "nodes" : [
        {
            "mesh" : 0,
            "name" : "final",
            "scale" : [
                1.8691589832305908,
                10.526315689086914,
                7.142858028411865
            ]
        }
    ],
    "materials" : [
        {
            "doubleSided" : true,
            "emissiveFactor" : [
                0,
                0,
                0
            ],
            "name" : "tex_map.001",
            "pbrMetallicRoughness" : {
                "baseColorTexture" : {
                    "index" : 0,
                    "texCoord" : 0
                },
                "metallicFactor" : 0,
                "roughnessFactor" : 0.5
            }
        }
    ],
    "meshes" : [
        {
            "name" : "\u7acb\u65b9\u4f53.006",
            "primitives" : [
                {
                    "attributes" : {
                        "POSITION" : 0,
                        "NORMAL" : 1,
                        "TEXCOORD_0" : 2
                    },
                    "indices" : 3,
                    "material" : 0
                }
            ]
        }
    ],
    "textures" : [
        {
            "source" : 0
        }
    ],
    "images" : [
        {
            "bufferView" : 4,
            "mimeType" : "image/jpeg",
            "name" : "parking_limit"
        }
    ],
    "accessors" : [
        {
            "bufferView" : 0,
            "componentType" : 5126,
            "count" : 1088,
            "max" : [
                0.26750004291534424,
                0.0949999988079071,
                0.06999999284744263
            ],
            "min" : [
                -0.2674999237060547,
                0,
                -0.06999999284744263
            ],
            "type" : "VEC3"
        },
        {
            "bufferView" : 1,
            "componentType" : 5126,
            "count" : 1088,
            "type" : "VEC3"
        },
        {
            "bufferView" : 2,
            "componentType" : 5126,
            "count" : 1088,
            "type" : "VEC2"
        },
        {
            "bufferView" : 3,
            "componentType" : 5123,
            "count" : 1500,
            "type" : "SCALAR"
        }
    ],
    "bufferViews" : [
        {
            "buffer" : 0,
            "byteLength" : 13056,
            "byteOffset" : 0
        },
        {
            "buffer" : 0,
            "byteLength" : 13056,
            "byteOffset" : 13056
        },
        {
            "buffer" : 0,
            "byteLength" : 8704,
            "byteOffset" : 26112
        },
        {
            "buffer" : 0,
            "byteLength" : 3000,
            "byteOffset" : 34816
        },
        {
            "buffer" : 0,
            "byteLength" : 7645,
            "byteOffset" : 37816
        }
    ],
    "buffers" : [
        {
            "byteLength" : 45464,
            "uri" : "data:application/octet-stream;base64,"
        }
    ]
}
