{
    "asset" : {
        "generator" : "Khronos glTF Blender I/O v1.2.75",
        "version" : "2.0"
    },
    "extensionsUsed" : [
        "KHR_materials_unlit"
    ],
    "scene" : 0,
    "scenes" : [
        {
            "name" : "Scene",
            "nodes" : [
                0
            ]
        }
    ],
    "nodes" : [
        {
            "mesh" : 0,
            "name" : "\u5706\u73af.001"
        }
    ],
    "materials" : [
        {
            "alphaMode" : "BLEND",
            "extensions" : {
                "KHR_materials_unlit" : {}
            },
            "name" : "blinkMat.001",
            "pbrMetallicRoughness" : {
                "baseColorTexture" : {
                    "index" : 0,
                    "texCoord" : 0
                }
            }
        }
    ],
    "meshes" : [
        {
            "name" : "\u5706\u73af.001",
            "primitives" : [
                {
                    "attributes" : {
                        "POSITION" : 0,
                        "NORMAL" : 1,
                        "TEXCOORD_0" : 2
                    },
                    "indices" : 3,
                    "material" : 0
                }
            ]
        }
    ],
    "textures" : [
        {
            "source" : 0
        }
    ],
    "images" : [
        {
            "bufferView" : 4,
            "mimeType" : "image/png",
            "name" : "AlphaWave_2"
        }
    ],
    "accessors" : [
        {
            "bufferView" : 0,
            "componentType" : 5126,
            "count" : 1008,
            "max" : [
                0.7025783061981201,
                0,
                0.9935951828956604
            ],
            "min" : [
                -0.7025779485702515,
                0,
                -0.9935952425003052
            ],
            "type" : "VEC3"
        },
        {
            "bufferView" : 1,
            "componentType" : 5126,
            "count" : 1008,
            "type" : "VEC3"
        },
        {
            "bufferView" : 2,
            "componentType" : 5126,
            "count" : 1008,
            "type" : "VEC2"
        },
        {
            "bufferView" : 3,
            "componentType" : 5123,
            "count" : 1488,
            "type" : "SCALAR"
        }
    ],
    "bufferViews" : [
        {
            "buffer" : 0,
            "byteLength" : 12096,
            "byteOffset" : 0
        },
        {
            "buffer" : 0,
            "byteLength" : 12096,
            "byteOffset" : 12096
        },
        {
            "buffer" : 0,
            "byteLength" : 8064,
            "byteOffset" : 24192
        },
        {
            "buffer" : 0,
            "byteLength" : 2976,
            "byteOffset" : 32256
        },
        {
            "buffer" : 0,
            "byteLength" : 90409,
            "byteOffset" : 35232
        }
    ],
    "buffers" : [
        {
            "byteLength" : 125644,
            "uri" : "data:application/octet-stream;base64,"
        }
    ]
}
