{
    "asset" : {
        "generator" : "Khronos glTF Blender I/O v1.2.75",
        "version" : "2.0"
    },
    "extensionsUsed" : [
        "KHR_materials_unlit"
    ],
    "scene" : 0,
    "scenes" : [
        {
            "name" : "Scene",
            "nodes" : [
                0
            ]
        }
    ],
    "nodes" : [
        {
            "mesh" : 0,
            "name" : "\u5706\u73af"
        }
    ],
    "materials" : [
        {
            "alphaMode" : "BLEND",
            "extensions" : {
                "KHR_materials_unlit" : {}
            },
            "name" : "blinkMat",
            "pbrMetallicRoughness" : {
                "baseColorTexture" : {
                    "index" : 0,
                    "texCoord" : 0
                }
            }
        }
    ],
    "meshes" : [
        {
            "name" : "\u5706\u73af",
            "primitives" : [
                {
                    "attributes" : {
                        "POSITION" : 0,
                        "NORMAL" : 1,
                        "TEXCOORD_0" : 2
                    },
                    "indices" : 3,
                    "material" : 0
                }
            ]
        }
    ],
    "textures" : [
        {
            "source" : 0
        }
    ],
    "images" : [
        {
            "bufferView" : 4,
            "mimeType" : "image/png",
            "name" : "AlphaWave"
        }
    ],
    "accessors" : [
        {
            "bufferView" : 0,
            "componentType" : 5126,
            "count" : 2022,
            "max" : [
                0.9935951828956604,
                0,
                0.9935951828956604
            ],
            "min" : [
                -0.9935952425003052,
                0,
                -0.9935952425003052
            ],
            "type" : "VEC3"
        },
        {
            "bufferView" : 1,
            "componentType" : 5126,
            "count" : 2022,
            "type" : "VEC3"
        },
        {
            "bufferView" : 2,
            "componentType" : 5126,
            "count" : 2022,
            "type" : "VEC2"
        },
        {
            "bufferView" : 3,
            "componentType" : 5123,
            "count" : 3000,
            "type" : "SCALAR"
        }
    ],
    "bufferViews" : [
        {
            "buffer" : 0,
            "byteLength" : 24264,
            "byteOffset" : 0
        },
        {
            "buffer" : 0,
            "byteLength" : 24264,
            "byteOffset" : 24264
        },
        {
            "buffer" : 0,
            "byteLength" : 16176,
            "byteOffset" : 48528
        },
        {
            "buffer" : 0,
            "byteLength" : 6000,
            "byteOffset" : 64704
        },
        {
            "buffer" : 0,
            "byteLength" : 138353,
            "byteOffset" : 70704
        }
    ],
    "buffers" : [
        {
            "byteLength" : 209060,
            "uri" : "data:application/octet-stream;base64,"
        }
    ]
}
