{
    "asset" : {
        "generator" : "Khronos glTF Blender I/O v1.2.75",
        "version" : "2.0"
    },
    "scene" : 0,
    "scenes" : [
        {
            "name" : "Scene",
            "nodes" : [
                0
            ]
        }
    ],
    "nodes" : [
        {
            "mesh" : 0,
            "name" : "Bajaj.002",
            "rotation" : [
                0,
                0.7071067690849304,
                0,
                0.7071067690849304
            ],
            "scale" : [
                0.7443790435791016,
                0.5713248252868652,
                0.3523007035255432
            ]
        }
    ],
    "materials" : [
        {
            "emissiveFactor" : [
                0,
                0,
                0
            ],
            "name" : "mat_white",
            "pbrMetallicRoughness" : {
                "baseColorFactor" : [
                    0.800000011920929,
                    0.800000011920929,
                    0.800000011920929,
                    1
                ],
                "metallicFactor" : 0,
                "roughnessFactor" : 0.5
            }
        }
    ],
    "meshes" : [
        {
            "name" : "Bajaj.003",
            "primitives" : [
                {
                    "attributes" : {
                        "POSITION" : 0,
                        "NORMAL" : 1,
                        "TEXCOORD_0" : 2
                    },
                    "indices" : 3,
                    "material" : 0
                }
            ]
        }
    ],
    "accessors" : [
        {
            "bufferView" : 0,
            "componentType" : 5126,
            "count" : 23407,
            "max" : [
                0.6717008352279663,
                1.7544724941253662,
                1.4238107204437256
            ],
            "min" : [
                -0.6717007160186768,
                0.004154733382165432,
                -1.4146734476089478
            ],
            "type" : "VEC3"
        },
        {
            "bufferView" : 1,
            "componentType" : 5126,
            "count" : 23407,
            "type" : "VEC3"
        },
        {
            "bufferView" : 2,
            "componentType" : 5126,
            "count" : 23407,
            "type" : "VEC2"
        },
        {
            "bufferView" : 3,
            "componentType" : 5123,
            "count" : 34650,
            "type" : "SCALAR"
        }
    ],
    "bufferViews" : [
        {
            "buffer" : 0,
            "byteLength" : 280884,
            "byteOffset" : 0
        },
        {
            "buffer" : 0,
            "byteLength" : 280884,
            "byteOffset" : 280884
        },
        {
            "buffer" : 0,
            "byteLength" : 187256,
            "byteOffset" : 561768
        },
        {
            "buffer" : 0,
            "byteLength" : 69300,
            "byteOffset" : 749024
        }
    ],
    "buffers" : [
        {
            "byteLength" : 818324,
            "uri" : "data:application/octet-stream;base64,"
        }
    ]
}
