# Blender v2.83.7 OBJ File: 'colorResolve2.blend'
# www.blender.org
mtllib file.mtl
o traffic_cone_柱体.005_柱体.006
v -0.085529 0.357693 -0.206487
v 0.000000 0.357693 -0.223500
v -0.046496 0.719231 -0.112251
v 0.000000 0.719231 -0.121500
v -0.158038 0.357693 -0.158038
v -0.085914 0.719231 -0.085913
v -0.206487 0.357692 -0.085529
v -0.112251 0.719231 -0.046496
v -0.223500 0.357692 0.000000
v -0.121500 0.719231 0.000000
v -0.206487 0.357692 0.085530
v -0.112251 0.719231 0.046496
v -0.158038 0.357692 0.158039
v -0.085914 0.719231 0.085914
v -0.085529 0.357692 0.206487
v -0.046496 0.719231 0.112251
v 0.000000 0.357692 0.223500
v 0.000000 0.719231 0.121500
v 0.085529 0.357692 0.206487
v 0.046497 0.719231 0.112251
v 0.158038 0.357692 0.158039
v 0.085914 0.719231 0.085914
v 0.206487 0.357692 0.085530
v 0.112251 0.719231 0.046496
v 0.223500 0.357692 0.000000
v 0.121500 0.719231 0.000000
v 0.206487 0.357692 -0.085529
v 0.112251 0.719231 -0.046496
v 0.158038 0.357693 -0.158038
v 0.085914 0.719231 -0.085913
v 0.085529 0.357693 -0.206487
v 0.046497 0.719231 -0.112251
v -0.019664 0.967753 -0.047474
v 0.000000 0.967753 -0.051385
v -0.036335 0.967753 -0.036335
v -0.047474 0.967753 -0.019664
v -0.051385 0.967753 0.000000
v -0.047474 0.967753 0.019664
v -0.036335 0.967753 0.036335
v -0.019664 0.967753 0.047474
v 0.000000 0.967753 0.051385
v 0.019664 0.967753 0.047474
v 0.036335 0.967753 0.036335
v 0.047474 0.967753 0.019664
v 0.051385 0.967753 0.000000
v 0.047474 0.967753 -0.019664
v 0.036335 0.967753 -0.036335
v 0.019664 0.967753 -0.047474
v 0.000000 0.990385 -0.045000
v 0.017221 0.990385 -0.041575
v 0.031820 0.990385 -0.031820
v 0.041575 0.990385 -0.017221
v 0.045000 0.990385 0.000000
v 0.041575 0.990385 0.017221
v 0.031820 0.990385 0.031820
v 0.017221 0.990385 0.041575
v 0.000000 0.990385 0.045000
v -0.017221 0.990385 0.041575
v -0.031820 0.990385 0.031820
v -0.041575 0.990385 0.017221
v -0.045000 0.990385 0.000000
v -0.041575 0.990385 -0.017221
v -0.031820 0.990385 -0.031820
v -0.017221 0.990385 -0.041575
v 0.000000 0.067308 -0.375000
v 0.000000 0.086538 -0.375000
v 0.143506 0.086538 -0.346455
v 0.143506 0.067308 -0.346455
v 0.265165 0.086538 -0.265165
v 0.265165 0.067308 -0.265165
v 0.346455 0.086538 -0.143506
v 0.346455 0.067308 -0.143506
v 0.375000 0.086538 0.000000
v 0.375000 0.067308 0.000000
v 0.346455 0.086538 0.143506
v 0.346455 0.067308 0.143506
v 0.265165 0.086538 0.265165
v 0.265165 0.067308 0.265165
v 0.143506 0.086538 0.346455
v 0.143506 0.067308 0.346455
v 0.000000 0.086538 0.375000
v 0.000000 0.067308 0.375000
v -0.143506 0.086538 0.346455
v -0.143506 0.067308 0.346455
v -0.265165 0.086538 0.265165
v -0.265165 0.067308 0.265165
v -0.346455 0.086538 0.143506
v -0.346455 0.067308 0.143506
v -0.375000 0.086538 0.000000
v -0.375000 0.067308 0.000000
v -0.346455 0.086538 -0.143506
v -0.346455 0.067308 -0.143506
v -0.265165 0.086538 -0.265165
v -0.265165 0.067308 -0.265165
v -0.143506 0.086538 -0.346455
v -0.143506 0.067308 -0.346455
v -0.114805 0.086538 -0.277164
v 0.000000 0.086538 -0.300000
v -0.212132 0.086538 -0.212132
v -0.277164 0.086538 -0.114805
v -0.300000 0.086538 0.000000
v -0.277164 0.086538 0.114805
v -0.212132 0.086538 0.212132
v -0.114805 0.086538 0.277164
v 0.000000 0.086538 0.300000
v 0.114805 0.086538 0.277164
v 0.212132 0.086538 0.212132
v 0.277164 0.086538 0.114805
v 0.300000 0.086538 0.000000
v 0.277164 0.086538 -0.114805
v 0.212132 0.086538 -0.212132
v 0.114805 0.086538 -0.277164
v -0.143506 0.086538 -0.346455
v -0.114805 0.086538 -0.277164
v 0.000000 0.086538 -0.300000
v 0.000000 0.086538 -0.375000
v -0.265165 0.086538 -0.265165
v -0.212132 0.086538 -0.212132
v -0.346455 0.086538 -0.143506
v -0.277164 0.086538 -0.114805
v -0.375000 0.086538 0.000000
v -0.300000 0.086538 0.000000
v -0.346455 0.086538 0.143506
v -0.277164 0.086538 0.114805
v -0.265165 0.086538 0.265165
v -0.212132 0.086538 0.212132
v -0.143506 0.086538 0.346455
v -0.114805 0.086538 0.277164
v 0.000000 0.086538 0.375000
v 0.000000 0.086538 0.300000
v 0.143506 0.086538 0.346455
v 0.114805 0.086538 0.277164
v 0.265165 0.086538 0.265165
v 0.212132 0.086538 0.212132
v 0.346455 0.086538 0.143506
v 0.277164 0.086538 0.114805
v 0.375000 0.086538 0.000000
v 0.300000 0.086538 0.000000
v 0.346455 0.086538 -0.143506
v 0.277164 0.086538 -0.114805
v 0.265165 0.086538 -0.265165
v 0.212132 0.086538 -0.212132
v 0.143506 0.086538 -0.346455
v 0.114805 0.086538 -0.277164
v 0.000000 0.990385 0.000000
v 0.017221 0.990385 -0.041575
v 0.000000 0.990385 -0.045000
v 0.031820 0.990385 -0.031820
v 0.041575 0.990385 -0.017221
v 0.045000 0.990385 0.000000
v 0.041575 0.990385 0.017221
v 0.031820 0.990385 0.031820
v 0.017221 0.990385 0.041575
v 0.000000 0.990385 0.045000
v -0.017221 0.990385 0.041575
v -0.031820 0.990385 0.031820
v -0.041575 0.990385 0.017221
v -0.045000 0.990385 0.000000
v -0.041575 0.990385 -0.017221
v -0.031820 0.990385 -0.031820
v -0.017221 0.990385 -0.041575
v -0.500000 -0.009615 0.500000
v -0.500000 0.028846 0.500000
v -0.500000 0.028846 -0.500000
v -0.500000 -0.009615 -0.500000
v 0.500000 0.028846 -0.500000
v 0.500000 -0.009615 -0.500000
v 0.500000 0.028846 0.500000
v 0.500000 -0.009615 0.500000
v 0.450000 0.067308 -0.450000
v -0.450000 0.067308 -0.450000
v -0.450000 0.067308 0.450000
v 0.450000 0.067308 0.450000
vt 0.062500 0.950000
vt 0.062500 0.975000
vt 0.000000 0.975000
vt 0.000000 0.950000
vt 0.125000 0.950000
vt 0.125000 0.975000
vt 0.187500 0.950000
vt 0.187500 0.975000
vt 0.250000 0.950000
vt 0.250000 0.975000
vt 0.312500 0.950000
vt 0.312500 0.975000
vt 0.375000 0.950000
vt 0.375000 0.975000
vt 0.437500 0.950000
vt 0.437500 0.975000
vt 0.500000 0.950000
vt 0.500000 0.975000
vt 0.562500 0.950000
vt 0.562500 0.975000
vt 0.625000 0.950000
vt 0.625000 0.975000
vt 0.687500 0.950000
vt 0.687500 0.975000
vt 0.750000 0.950000
vt 0.750000 0.975000
vt 0.812500 0.950000
vt 0.812500 0.975000
vt 0.875000 0.950000
vt 0.875000 0.975000
vt 0.937500 0.950000
vt 0.937500 0.975000
vt 1.000000 0.950000
vt 1.000000 0.975000
vt 0.062500 0.750000
vt 0.062500 0.800000
vt 0.000000 0.800000
vt 0.000000 0.750000
vt 0.125000 0.750000
vt 0.125000 0.800000
vt 0.187500 0.750000
vt 0.187500 0.800000
vt 0.250000 0.750000
vt 0.250000 0.800000
vt 0.312500 0.750000
vt 0.312500 0.800000
vt 0.375000 0.750000
vt 0.375000 0.800000
vt 0.437500 0.750000
vt 0.437500 0.800000
vt 0.500000 0.750000
vt 0.500000 0.800000
vt 0.562500 0.750000
vt 0.562500 0.800000
vt 0.625000 0.750000
vt 0.625000 0.800000
vt 0.687500 0.750000
vt 0.687500 0.800000
vt 0.750000 0.750000
vt 0.750000 0.800000
vt 0.812500 0.750000
vt 0.812500 0.800000
vt 0.875000 0.750000
vt 0.875000 0.800000
vt 0.937500 0.750000
vt 0.937500 0.800000
vt 1.000000 0.750000
vt 1.000000 0.800000
vt 0.062500 0.850000
vt 0.062500 0.900000
vt 0.000000 0.900000
vt 0.000000 0.850000
vt 0.125000 0.850000
vt 0.125000 0.900000
vt 0.187500 0.850000
vt 0.187500 0.900000
vt 0.250000 0.850000
vt 0.250000 0.900000
vt 0.312500 0.850000
vt 0.312500 0.900000
vt 0.375000 0.850000
vt 0.375000 0.900000
vt 0.437500 0.850000
vt 0.437500 0.900000
vt 0.500000 0.850000
vt 0.500000 0.900000
vt 0.562500 0.850000
vt 0.562500 0.900000
vt 0.625000 0.850000
vt 0.625000 0.900000
vt 0.687500 0.850000
vt 0.687500 0.900000
vt 0.750000 0.850000
vt 0.750000 0.900000
vt 0.812500 0.850000
vt 0.812500 0.900000
vt 0.875000 0.850000
vt 0.875000 0.900000
vt 0.937500 0.850000
vt 0.937500 0.900000
vt 1.000000 0.850000
vt 1.000000 0.900000
vt 1.000005 0.993740
vt 1.000000 1.000000
vt 0.937500 1.000000
vt 0.937500 0.993740
vt 0.875000 1.000000
vt 0.875000 0.993740
vt 0.812500 1.000000
vt 0.812500 0.993740
vt 0.750000 1.000000
vt 0.750000 0.993740
vt 0.687500 1.000000
vt 0.687500 0.993740
vt 0.625000 1.000000
vt 0.625000 0.993740
vt 0.562500 1.000000
vt 0.562500 0.993740
vt 0.500000 1.000000
vt 0.500000 0.993740
vt 0.437500 1.000000
vt 0.437500 0.993740
vt 0.375000 1.000000
vt 0.375000 0.993740
vt 0.312500 1.000000
vt 0.312500 0.993740
vt 0.250000 1.000000
vt 0.250000 0.993740
vt 0.187500 1.000000
vt 0.187500 0.993740
vt 0.125000 1.000000
vt 0.125000 0.993740
vt 0.062500 1.000000
vt 0.062500 0.993740
vt 0.000000 1.000000
vt -0.000005 0.993740
vt 1.000000 0.500000
vt 1.000000 0.625000
vt 0.937500 0.625000
vt 0.937500 0.500000
vt 0.875000 0.625000
vt 0.875000 0.500000
vt 0.812500 0.625000
vt 0.812500 0.500000
vt 0.750000 0.625000
vt 0.750000 0.500000
vt 0.687500 0.625000
vt 0.687500 0.500000
vt 0.625000 0.625000
vt 0.625000 0.500000
vt 0.562500 0.625000
vt 0.562500 0.500000
vt 0.500000 0.625000
vt 0.500000 0.500000
vt 0.437500 0.625000
vt 0.437500 0.500000
vt 0.375000 0.625000
vt 0.375000 0.500000
vt 0.312500 0.625000
vt 0.312500 0.500000
vt 0.250000 0.625000
vt 0.250000 0.500000
vt 0.187500 0.625000
vt 0.187500 0.500000
vt 0.125000 0.625000
vt 0.125000 0.500000
vt 0.062500 0.625000
vt 0.062500 0.500000
vt 0.000000 0.625000
vt 0.000000 0.500000
vt 0.062500 0.625000
vt 0.062500 0.750000
vt 0.000000 0.750000
vt 0.000000 0.625000
vt 0.125000 0.625000
vt 0.125000 0.750000
vt 0.187500 0.625000
vt 0.187500 0.750000
vt 0.250000 0.625000
vt 0.250000 0.750000
vt 0.312500 0.625000
vt 0.312500 0.750000
vt 0.375000 0.625000
vt 0.375000 0.750000
vt 0.437500 0.625000
vt 0.437500 0.750000
vt 0.500000 0.625000
vt 0.500000 0.750000
vt 0.562500 0.625000
vt 0.562500 0.750000
vt 0.625000 0.625000
vt 0.625000 0.750000
vt 0.687500 0.625000
vt 0.687500 0.750000
vt 0.750000 0.625000
vt 0.750000 0.750000
vt 0.812500 0.625000
vt 0.812500 0.750000
vt 0.875000 0.625000
vt 0.875000 0.750000
vt 0.937500 0.625000
vt 0.937500 0.750000
vt 1.000000 0.625000
vt 1.000000 0.750000
vt 0.307261 0.388241
vt 0.341844 0.471731
vt 0.250000 0.490000
vt 0.355805 0.355805
vt 0.419706 0.419706
vt 0.388241 0.307261
vt 0.471731 0.341844
vt 0.399631 0.250000
vt 0.490000 0.250000
vt 0.388241 0.192739
vt 0.471731 0.158156
vt 0.355805 0.144195
vt 0.419706 0.080294
vt 0.307261 0.111759
vt 0.341844 0.028269
vt 0.250000 0.100369
vt 0.250000 0.010000
vt 0.192739 0.111759
vt 0.158156 0.028269
vt 0.144195 0.144195
vt 0.080294 0.080294
vt 0.111759 0.192739
vt 0.028269 0.158156
vt 0.100369 0.250000
vt 0.010000 0.250000
vt 0.111759 0.307261
vt 0.028269 0.341844
vt 0.144195 0.355805
vt 0.080294 0.419706
vt 0.192739 0.388241
vt 0.158156 0.471731
vt 0.250000 0.399631
vt 0.375000 0.000000
vt 0.625000 0.000000
vt 0.625000 0.250000
vt 0.375000 0.250000
vt 0.625000 0.500000
vt 0.375000 0.500000
vt 0.625000 0.750000
vt 0.375000 0.750000
vt 0.625000 1.000000
vt 0.375000 1.000000
vt 0.125000 0.500000
vt 0.125000 0.750000
vt 0.637500 0.512500
vt 0.862500 0.512500
vt 0.862500 0.737500
vt 0.637500 0.737500
vt 0.875000 0.500000
vt 0.875000 0.750000
vn -0.3706 0.2699 -0.8887
vn -0.3687 0.2687 -0.8899
vn -0.0000 0.2687 -0.9632
vn -0.0010 0.2741 -0.9617
vn -0.6825 0.2698 -0.6792
vn -0.6811 0.2687 -0.6811
vn -0.8905 0.2698 -0.3665
vn -0.8899 0.2687 -0.3687
vn -0.9629 0.2698 0.0023
vn -0.9632 0.2687 0.0000
vn -0.8889 0.2695 0.3704
vn -0.8899 0.2687 0.3687
vn -0.6795 0.2695 0.6824
vn -0.6811 0.2687 0.6811
vn -0.3664 0.2698 0.8905
vn -0.3687 0.2687 0.8899
vn 0.0023 0.2698 0.9629
vn -0.0000 0.2687 0.9632
vn 0.3706 0.2699 0.8887
vn 0.3687 0.2687 0.8899
vn 0.6825 0.2698 0.6792
vn 0.6811 0.2687 0.6811
vn 0.8905 0.2698 0.3665
vn 0.8899 0.2687 0.3687
vn 0.9629 0.2698 -0.0023
vn 0.9632 0.2687 -0.0000
vn 0.8887 0.2699 -0.3706
vn 0.8899 0.2687 -0.3687
vn 0.6792 0.2698 -0.6825
vn 0.6811 0.2687 -0.6811
vn 0.3664 0.2698 -0.8905
vn 0.3687 0.2687 -0.8899
vn -0.3671 0.2692 -0.8904
vn 0.0028 0.2723 -0.9622
vn -0.6798 0.2692 -0.6822
vn -0.8889 0.2696 -0.3704
vn -0.9632 0.2688 0.0000
vn -0.9630 0.2695 -0.0020
vn -0.8904 0.2692 0.3671
vn -0.6822 0.2692 0.6798
vn -0.3701 0.2693 0.8891
vn -0.0016 0.2693 0.9631
vn 0.3671 0.2692 0.8904
vn 0.6798 0.2692 0.6822
vn 0.8891 0.2693 0.3701
vn 0.9632 0.2688 -0.0000
vn 0.9631 0.2692 0.0017
vn 0.8904 0.2692 -0.3671
vn 0.6822 0.2692 -0.6798
vn 0.3701 0.2693 -0.8891
vn 0.0000 0.0000 -1.0000
vn 0.3827 0.0000 -0.9239
vn 0.7071 0.0000 -0.7071
vn 0.9239 0.0000 -0.3827
vn 1.0000 0.0000 -0.0000
vn 0.9239 0.0000 0.3827
vn 0.7071 0.0000 0.7071
vn 0.3827 0.0000 0.9239
vn 0.0000 0.0000 1.0000
vn -0.3827 0.0000 0.9239
vn -0.7071 0.0000 0.7071
vn -0.9239 -0.0000 0.3827
vn -1.0000 -0.0000 -0.0000
vn -0.9239 0.0000 -0.3827
vn -0.7071 0.0000 -0.7071
vn -0.3827 0.0000 -0.9239
vn 0.0000 1.0000 0.0000
vn 0.0000 -1.0000 -0.0000
vn -0.6097 0.7926 0.0000
vn 0.0000 0.7926 -0.6097
vn 0.6097 0.7926 0.0000
vn 0.0000 0.7926 0.6097
usemtl common_red
s 1
f 3/1/1 33/2/2 34/3/3 4/4/4
f 6/5/5 35/6/6 33/2/2 3/1/1
f 8/7/7 36/8/8 35/6/6 6/5/5
f 10/9/9 37/10/10 36/8/8 8/7/7
f 12/11/11 38/12/12 37/10/10 10/9/9
f 14/13/13 39/14/14 38/12/12 12/11/11
f 16/15/15 40/16/16 39/14/14 14/13/13
f 18/17/17 41/18/18 40/16/16 16/15/15
f 20/19/19 42/20/20 41/18/18 18/17/17
f 22/21/21 43/22/22 42/20/20 20/19/19
f 24/23/23 44/24/24 43/22/22 22/21/21
f 26/25/25 45/26/26 44/24/24 24/23/23
f 28/27/27 46/28/28 45/26/26 26/25/25
f 30/29/29 47/30/30 46/28/28 28/27/27
f 32/31/31 48/32/32 47/30/30 30/29/29
f 4/33/4 34/34/3 48/32/32 32/31/31
f 97/35/2 1/36/33 2/37/34 98/38/3
f 99/39/6 5/40/35 1/36/33 97/35/2
f 100/41/8 7/42/36 5/40/35 99/39/6
f 101/43/37 9/44/38 7/42/36 100/41/8
f 102/45/12 11/46/39 9/44/38 101/43/37
f 103/47/14 13/48/40 11/46/39 102/45/12
f 104/49/16 15/50/41 13/48/40 103/47/14
f 105/51/18 17/52/42 15/50/41 104/49/16
f 106/53/20 19/54/43 17/52/42 105/51/18
f 107/55/22 21/56/44 19/54/43 106/53/20
f 108/57/24 23/58/45 21/56/44 107/55/22
f 109/59/46 25/60/47 23/58/45 108/57/24
f 110/61/28 27/62/48 25/60/47 109/59/46
f 111/63/30 29/64/49 27/62/48 110/61/28
f 112/65/32 31/66/50 29/64/49 111/63/30
f 98/67/3 2/68/34 31/66/50 112/65/32
usemtl common_white
f 1/69/33 3/70/1 4/71/4 2/72/34
f 5/73/35 6/74/5 3/70/1 1/69/33
f 7/75/36 8/76/7 6/74/5 5/73/35
f 9/77/38 10/78/9 8/76/7 7/75/36
f 11/79/39 12/80/11 10/78/9 9/77/38
f 13/81/40 14/82/13 12/80/11 11/79/39
f 15/83/41 16/84/15 14/82/13 13/81/40
f 17/85/42 18/86/17 16/84/15 15/83/41
f 19/87/43 20/88/19 18/86/17 17/85/42
f 21/89/44 22/90/21 20/88/19 19/87/43
f 23/91/45 24/92/23 22/90/21 21/89/44
f 25/93/47 26/94/25 24/92/23 23/91/45
f 27/95/48 28/96/27 26/94/25 25/93/47
f 29/97/49 30/98/29 28/96/27 27/95/48
f 31/99/50 32/100/31 30/98/29 29/97/49
f 2/101/34 4/102/4 32/100/31 31/99/50
usemtl common_black
f 34/103/3 49/104/3 50/105/32 48/106/32
f 48/106/32 50/105/32 51/107/30 47/108/30
f 47/108/30 51/107/30 52/109/28 46/110/28
f 46/110/28 52/109/28 53/111/46 45/112/26
f 45/112/26 53/111/46 54/113/24 44/114/24
f 44/114/24 54/113/24 55/115/22 43/116/22
f 43/116/22 55/115/22 56/117/20 42/118/20
f 42/118/20 56/117/20 57/119/18 41/120/18
f 41/120/18 57/119/18 58/121/16 40/122/16
f 40/122/16 58/121/16 59/123/14 39/124/14
f 39/124/14 59/123/14 60/125/12 38/126/12
f 38/126/12 60/125/12 61/127/37 37/128/10
f 37/128/10 61/127/37 62/129/8 36/130/8
f 36/130/8 62/129/8 63/131/6 35/132/6
f 35/132/6 63/131/6 64/133/2 33/134/2
f 33/134/2 64/133/2 49/135/3 34/136/3
f 65/137/51 66/138/51 67/139/52 68/140/52
f 68/140/52 67/139/52 69/141/53 70/142/53
f 70/142/53 69/141/53 71/143/54 72/144/54
f 72/144/54 71/143/54 73/145/55 74/146/55
f 74/146/55 73/145/55 75/147/56 76/148/56
f 76/148/56 75/147/56 77/149/57 78/150/57
f 78/150/57 77/149/57 79/151/58 80/152/58
f 80/152/58 79/151/58 81/153/59 82/154/59
f 82/154/59 81/153/59 83/155/60 84/156/60
f 84/156/60 83/155/60 85/157/61 86/158/61
f 86/158/61 85/157/61 87/159/62 88/160/62
f 88/160/62 87/159/62 89/161/63 90/162/63
f 90/162/63 89/161/63 91/163/64 92/164/64
f 92/164/64 91/163/64 93/165/65 94/166/65
f 94/166/65 93/165/65 95/167/66 96/168/66
f 96/168/66 95/167/66 66/169/51 65/170/51
f 113/171/67 114/172/67 115/173/67 116/174/67
f 117/175/67 118/176/67 114/172/67 113/171/67
f 119/177/67 120/178/67 118/176/67 117/175/67
f 121/179/67 122/180/67 120/178/67 119/177/67
f 123/181/67 124/182/67 122/180/67 121/179/67
f 125/183/67 126/184/67 124/182/67 123/181/67
f 127/185/67 128/186/67 126/184/67 125/183/67
f 129/187/67 130/188/67 128/186/67 127/185/67
f 131/189/67 132/190/67 130/188/67 129/187/67
f 133/191/67 134/192/67 132/190/67 131/189/67
f 135/193/67 136/194/67 134/192/67 133/191/67
f 137/195/67 138/196/67 136/194/67 135/193/67
f 139/197/67 140/198/67 138/196/67 137/195/67
f 141/199/67 142/200/67 140/198/67 139/197/67
f 143/201/67 144/202/67 142/200/67 141/199/67
f 116/203/67 115/204/67 144/202/67 143/201/67
f 145/205/67 146/206/67 147/207/67
f 145/208/67 148/209/67 146/206/67
f 145/210/67 149/211/67 148/209/67
f 145/212/67 150/213/67 149/211/67
f 145/214/67 151/215/67 150/213/67
f 145/216/67 152/217/67 151/215/67
f 145/218/67 153/219/67 152/217/67
f 145/220/67 154/221/67 153/219/67
f 145/222/67 155/223/67 154/221/67
f 145/224/67 156/225/67 155/223/67
f 145/226/67 157/227/67 156/225/67
f 145/228/67 158/229/67 157/227/67
f 145/230/67 159/231/67 158/229/67
f 145/232/67 160/233/67 159/231/67
f 145/234/67 161/235/67 160/233/67
f 145/236/67 147/207/67 161/235/67
f 162/237/63 163/238/63 164/239/63 165/240/63
f 165/240/51 164/239/51 166/241/51 167/242/51
f 167/242/55 166/241/55 168/243/55 169/244/55
f 169/244/59 168/243/59 163/245/59 162/246/59
f 165/247/68 167/242/68 169/244/68 162/248/68
f 170/249/67 171/250/67 172/251/67 173/252/67
f 172/251/69 171/250/69 164/253/69 163/254/69
f 171/250/70 170/249/70 166/241/70 164/253/70
f 170/249/71 173/252/71 168/243/71 166/241/71
f 173/252/72 172/251/72 163/254/72 168/243/72
